<?xml version="1.0" encoding="UTF-8"?>
<svg id="Layer_2" data-name="Layer 2" xmlns="http://www.w3.org/2000/svg" viewBox="0 0 1848.72 591.72">
  <defs>
    <style>
      .cls-1 {
        fill: #25afc2;
      }
    </style>
  </defs>
  <g id="Layer_1-2" data-name="Layer 1">
    <g>
      <path class="cls-1" d="m37.68,100.12C16.73,100.12,0,116.17,0,138.45v272.1c0,20.95,16.73,37.68,37.68,37.68s37.66-16.73,37.66-37.68V138.45c0-22.29-16.04-38.33-37.66-38.33Z"/>
      <path class="cls-1" d="m278.1,100.66c-80,0-146.73,65.35-146.73,144.6v166.16c0,19.45,18.11,36.86,37.59,36.86,20.83,0,36.13-17.4,36.13-36.86v-166.16c.71-39.63,32.65-70.92,73.01-70.92s70.9,31.29,70.9,70.92v166.16c0,19.45,15.97,36.86,36.82,36.86s36.88-17.4,36.88-36.86v-166.16c0-79.25-65.37-144.6-144.6-144.6Z"/>
      <path class="cls-1" d="m1848.7,272.72c-1.67-97.65-82.16-175.68-179.93-174.13-36.89.58-70.95,12.35-98.99,32.02V48.83c0-22.31-16.08-38.35-37.7-38.35s-37.66,16.05-37.66,38.35v224.25c-.02,1.73-.03,3.45,0,5.19v132.29c0,20.95,16.76,37.68,37.66,37.68,18.44,0,32.85-12.18,36.68-28.76,29.73,21.21,66.26,33.47,105.58,32.88,97.82-1.55,175.87-81.93,174.36-179.64Zm-77.26,9.86c-3.93,55.05-51.72,96.62-106.92,92.65-55.16-3.92-96.79-51.68-92.98-106.73,3.91-55.24,51.81-96.69,106.94-92.88,55.24,4.08,96.89,51.83,92.96,106.96Z"/>
      <path class="cls-1" d="m1004.24,10.47c-20.93,0-37.64,16.05-37.64,38.35v361.73c0,20.95,16.71,37.68,37.64,37.68s37.7-16.73,37.7-37.68V48.83c0-22.31-16.1-38.35-37.7-38.35Z"/>
      <path class="cls-1" d="m815.98,517.69l-125.11-34.16c-21.5-5.9-41.21,5.4-46.91,26.27-5.49,20.18,5.55,40.55,27.07,46.43l125.15,34.14c20.2,5.48,40.78-6.24,46.28-26.46,5.67-20.83-6.24-40.73-26.48-46.22Z"/>
      <path class="cls-1" d="m693.61,0c-126.66,0-229.37,102.69-229.37,229.37s102.71,229.38,229.37,229.38,229.37-102.71,229.37-229.38S820.29,0,693.61,0Zm0,383.64c-85.07,0-154.27-69.2-154.27-154.27s69.2-154.25,154.27-154.25,154.25,69.2,154.25,154.25-69.2,154.27-154.25,154.27Z"/>
      <path class="cls-1" d="m1439.7,139.01c0-22.31-16.76-38.35-37.66-38.35-18.97,0-33.67,12.36-36.99,30.45-28.18-19.97-62.5-31.94-99.7-32.52-97.77-1.55-178.26,76.47-179.93,174.13-1.51,97.71,76.53,178.09,174.36,179.64,39.32.58,75.85-11.67,105.58-32.88,3.84,16.58,18.24,28.76,36.68,28.76,20.91,0,37.66-16.73,37.66-37.68v-132.29c.03-1.74.02-3.47,0-5.19v-134.07Zm-170.11,236.22c-55.2,3.96-102.99-37.61-106.92-92.65-3.93-55.12,37.72-102.88,92.96-106.96,55.12-3.81,103.03,37.64,106.94,92.88,3.81,55.05-37.82,102.8-92.98,106.73Z"/>
    </g>
  </g>
</svg>